<?xml version="1.0" encoding="iso-8859-1"?>
<!-- Generator: Adobe Illustrator 18.0.0, SVG Export Plug-In . SVG Version: 6.00 Build 0)  -->
<!DOCTYPE svg PUBLIC "-//W3C//DTD SVG 1.1//EN" "http://www.w3.org/Graphics/SVG/1.1/DTD/svg11.dtd">
<svg version="1.1" id="Capa_1" xmlns="http://www.w3.org/2000/svg" xmlns:xlink="http://www.w3.org/1999/xlink" x="0px" y="0px"
	 viewBox="0 0 297.5 297.5" style="enable-background:new 0 0 297.5 297.5;" xml:space="preserve">
<g>
	<g id="XMLID_41_">
		<g>
			<polygon style="fill:#80AAB8;" points="164.92,134.2 148.75,149.74 132.58,134.2 			"/>
			<path style="fill:#EA5B2C;" d="M233.2,55.679v220.65H64.309V55.679H233.2z M198.15,131.29c3.069-2.96,4.039-7.49,2.449-11.45
				c-1.59-3.96-5.43-6.55-9.699-6.55h-84.29c-4.271,0-8.11,2.59-9.7,6.55c-1.601,3.96-0.63,8.49,2.45,11.45L138.3,168.7v36.06h-8.09
				c-5.78,0-10.46,4.681-10.46,10.46c0,5.78,4.68,10.46,10.46,10.46h37.09c5.771,0,10.45-4.68,10.45-10.46
				c0-5.779-4.68-10.46-10.45-10.46h-8.09V168.7L198.15,131.29z"/>
			<polygon style="fill:#A97819;" points="198.689,23.74 198.689,34.759 149.12,34.759 			"/>
			<path d="M254.11,45.219v241.57c0,5.78-4.681,10.46-10.45,10.46H53.849c-5.779,0-10.46-4.68-10.46-10.46V45.219
				c0-4.979,3.48-9.14,8.141-10.189c0.02-0.011,0.029-0.021,0.05-0.021l0.13-0.029c0.02,0,0.03-0.011,0.05-0.011L206.88,0.5
				c3.1-0.69,6.34,0.07,8.809,2.05c2.471,1.99,3.91,4.99,3.91,8.16v24.05h24.061C249.43,34.759,254.11,39.44,254.11,45.219z
				 M233.2,276.33V55.679H64.309v220.65H233.2z M198.689,34.759V23.74l-49.569,11.02H198.689z"/>
			<path d="M200.599,119.839c1.59,3.96,0.62,8.49-2.449,11.45L159.21,168.7v36.06h8.09c5.771,0,10.45,4.681,10.45,10.46
				c0,5.78-4.68,10.46-10.45,10.46h-37.09c-5.78,0-10.46-4.68-10.46-10.46c0-5.779,4.68-10.46,10.46-10.46h8.09V168.7L99.36,131.29
				c-3.08-2.96-4.051-7.49-2.45-11.45c1.59-3.96,5.43-6.55,9.7-6.55h84.29C195.17,113.29,199.01,115.879,200.599,119.839z
				 M148.75,149.74l16.17-15.54h-32.34L148.75,149.74z"/>
		</g>
		<g>
		</g>
	</g>
</g>
<g>
</g>
<g>
</g>
<g>
</g>
<g>
</g>
<g>
</g>
<g>
</g>
<g>
</g>
<g>
</g>
<g>
</g>
<g>
</g>
<g>
</g>
<g>
</g>
<g>
</g>
<g>
</g>
<g>
</g>
</svg>
